<?xml version="1.0" encoding="UTF-8" standalone="no"?><!DOCTYPE svg PUBLIC "-//W3C//DTD SVG 1.1//EN" "http://www.w3.org/Graphics/SVG/1.1/DTD/svg11.dtd"><svg width="100%" height="100%" viewBox="0 0 75 76" version="1.1" xmlns="http://www.w3.org/2000/svg" xmlns:xlink="http://www.w3.org/1999/xlink" xml:space="preserve" xmlns:serif="http://www.serif.com/" style="fill-rule:evenodd;clip-rule:evenodd;stroke-linejoin:round;stroke-miterlimit:1.41421;"><rect id="border" x="0" y="0.278" width="75" height="75" style="fill:none;"/><path d="M37.538,0.649c0.389,0.01 0.771,0.112 1.113,0.298c10.106,5.723 20.164,11.53 30.174,17.421c0.689,0.421 1.13,1.188 1.151,1.994c0.096,11.613 0.096,23.228 0,34.841c-0.021,0.807 -0.464,1.573 -1.151,1.994c-10.01,5.89 -20.068,11.697 -30.174,17.42c-0.707,0.385 -1.591,0.387 -2.302,0c-10.106,-5.723 -20.164,-11.53 -30.174,-17.42c-0.689,-0.422 -1.13,-1.188 -1.151,-1.994c-0.096,-11.613 -0.096,-23.228 0,-34.841c0.02,-0.805 0.461,-1.572 1.151,-1.994c10.01,-5.891 20.068,-11.698 30.174,-17.421c0.371,-0.202 0.697,-0.302 1.189,-0.298Zm-28.838,19.278c-0.658,0.38 -1.063,1.081 -1.063,1.841c0,5.357 0,26.671 0,32.029c0,0.759 0.405,1.461 1.063,1.84c4.639,2.679 23.098,13.336 27.737,16.015c0.658,0.379 1.468,0.379 2.126,0c4.639,-2.679 23.098,-13.336 27.737,-16.015c0.658,-0.379 1.063,-1.081 1.063,-1.84c0,-5.358 0,-26.672 0,-32.029c0,-0.76 -0.405,-1.461 -1.063,-1.841c-4.639,-2.679 -23.098,-13.335 -27.737,-16.014c-0.658,-0.38 -1.468,-0.38 -2.126,0c-9.246,5.338 -18.492,10.676 -27.737,16.014Z" style="fill:#08415c;fill-rule:nonzero;"/></svg>