<svg width="670" height="28" viewBox="0 0 670 28" fill="none" xmlns="http://www.w3.org/2000/svg">
	<style type="text/css">
        path{fill:url(#confermato)}
      </style>
	<path fill-rule="evenodd" clip-rule="evenodd" d="M25.4906 22C22.9607 25.627 18.7574 28 14 28C6.26807 28 0 21.732 0 14C0 6.26801 6.26807 0 14 0C19.1819 0 23.7064 2.81539 26.1271 7H129.873C132.294 2.81539 136.818 0 142 0C147.182 0 151.706 2.81539 154.127 7H258.873C261.294 2.81539 265.818 0 271 0C276.182 0 280.706 2.81539 283.127 7H386.873C389.294 2.81539 393.818 0 399 0C404.182 0 408.706 2.81539 411.127 7H515.873C518.294 2.81539 522.818 0 528 0C533.182 0 537.706 2.81539 540.127 7H643.873C646.294 2.81539 650.818 0 656 0C663.732 0 670 6.26801 670 14C670 21.732 663.732 28 656 28C651.243 28 647.039 25.627 644.509 22H539.491C536.961 25.627 532.757 28 528 28C523.243 28 519.039 25.627 516.509 22H410.491C407.961 25.627 403.757 28 399 28C394.243 28 390.039 25.627 387.509 22H282.491C279.961 25.627 275.757 28 271 28C266.243 28 262.039 25.627 259.509 22H153.491C150.961 25.627 146.757 28 142 28C137.243 28 133.039 25.627 130.509 22H25.4906Z" fill="#08415C"/>
	<defs>
        <linearGradient id="confermato">
          <stop offset="5%" stop-color="#08415C" />
          <stop offset="15%" stop-color="#8EA8B4" />
        </linearGradient>
        <linearGradient id="caricato">
          <stop offset="30%" stop-color="#08415C" />
          <stop offset="35%" stop-color="#8EA8B4" />
        </linearGradient>
        <linearGradient id="approvazione">
          <stop offset="45%" stop-color="#08415C" />
          <stop offset="55%" stop-color="#8EA8B4" />
        </linearGradient>
        <linearGradient id="stampato">
          <stop offset="65%" stop-color="#08415C" />
          <stop offset="75%" stop-color="#8EA8B4" />
        </linearGradient>
        <linearGradient id="spedito">
          <stop offset="85%" stop-color="#08415C" />
          <stop offset="95%" stop-color="#8EA8B4" />
        </linearGradient>
     </defs>
</svg>