<svg id="Livello_1" data-name="Livello 1" xmlns="http://www.w3.org/2000/svg" viewBox="0 0 1366 327"><defs><style>.cls-1{fill:#e42026;}.cls-2{fill:#1c9747;}.cls-3{fill:#231f20;}</style></defs><title>logo</title><path class="cls-1" d="M328.17,176.06a6,6,0,0,0-5.59-8.35H188.74a5.24,5.24,0,0,0-3.82,9.23l94.64,94.64a6,6,0,0,0,9.84-2,164.91,164.91,0,0,1,38.76-93.56"/><path class="cls-2" d="M176.88.09a6,6,0,0,0-8.35,5.59V139.51a5.24,5.24,0,0,0,9.22,3.83L272.4,48.69a6,6,0,0,0-2-9.84,167.88,167.88,0,0,1-49.84-12A167.45,167.45,0,0,1,176.87.09"/><path class="cls-3" d="M.91,151.39a6,6,0,0,0,5.57,8.35H140.33a5.25,5.25,0,0,0,3.82-9.23L49.51,55.87a6,6,0,0,0-9.86,2,167.74,167.74,0,0,1-12,49.83A167.86,167.86,0,0,1,.91,151.39"/><path class="cls-3" d="M152.2,327.35a6,6,0,0,0,8.35-5.57V187.94a5.25,5.25,0,0,0-9.23-3.83L56.68,278.76a6,6,0,0,0,2,9.84,167.74,167.74,0,0,1,49.83,12,167.86,167.86,0,0,1,43.74,26.73"/><path class="cls-3" d="M57.56,39.3a6,6,0,0,0-2,9.84l94.65,94.65a5.25,5.25,0,0,0,9.23-3.83V6.12A6,6,0,0,0,151.13.54,167.74,167.74,0,0,1,107.4,27.28a167.75,167.75,0,0,1-49.83,12"/><path class="cls-3" d="M40.1,270.71a6,6,0,0,0,9.86,2L144.6,178a5.25,5.25,0,0,0-3.82-9.23H6.93a6,6,0,0,0-5.57,8.35,167.87,167.87,0,0,1,26.73,43.74,167.74,167.74,0,0,1,12,49.83"/><path class="cls-3" d="M271.51,288.15a6,6,0,0,0,2-9.84l-94.64-94.65a5.25,5.25,0,0,0-9.23,3.83V321.32a6,6,0,0,0,8.35,5.59,164.92,164.92,0,0,1,93.57-38.76"/><path class="cls-3" d="M374.76,82.38h41v60.41q-12.15,8.24-30,13.6a115.86,115.86,0,0,1-33.28,5.36q-22.47,0-40.3-9.79a71.72,71.72,0,0,1-27.94-27q-10.09-17.21-10.1-38.86a72.32,72.32,0,0,1,39.58-65.54q18.56-9.69,41.85-9.68A98.71,98.71,0,0,1,389.5,17q17,6.2,28.55,16.49L391,66.31a54.3,54.3,0,0,0-17-11.45,47.14,47.14,0,0,0-18.65-4.21,30.42,30.42,0,0,0-16.49,4.64A31.6,31.6,0,0,0,327.35,68a39.19,39.19,0,0,0-4.12,18.14,39.46,39.46,0,0,0,4.21,18.45,32.31,32.31,0,0,0,11.65,12.78,30.78,30.78,0,0,0,16.7,4.64q7.83,0,19-4.95V82.38Z"/><path class="cls-3" d="M516.57,158.45l-17.32-37.51H481.32v37.51H433.51V14h69.87q29.49,0,45.56,13.5T565,65.69q0,15.68-5.89,27.31a44.93,44.93,0,0,1-17,18.45l28.44,47h-54Zm-35.25-73.8h22.05q7.83,0,12.06-4.64t4.23-12.89q0-8-4.23-12.47t-12.06-4.43H481.32V84.65Z"/><polygon class="cls-3" points="582.95 13.96 630.76 13.96 630.76 158.45 582.95 158.45 582.95 13.96 582.95 13.96"/><path class="cls-3" d="M744.75,82.38h41v60.41q-12.15,8.24-30,13.6a115.86,115.86,0,0,1-33.28,5.36q-22.47,0-40.3-9.79a71.82,71.82,0,0,1-27.94-27q-10.09-17.21-10.1-38.86a72.32,72.32,0,0,1,39.58-65.54q18.56-9.69,41.85-9.68A98.7,98.7,0,0,1,759.49,17q17,6.2,28.55,16.49L761,66.31a54.3,54.3,0,0,0-17-11.45,47.14,47.14,0,0,0-18.65-4.21,30.42,30.42,0,0,0-16.49,4.64A31.61,31.61,0,0,0,697.34,68a39.19,39.19,0,0,0-4.12,18.14,39.3,39.3,0,0,0,4.23,18.45,32.17,32.17,0,0,0,11.64,12.78,30.78,30.78,0,0,0,16.7,4.64q7.83,0,19-4.95V82.38Z"/><path class="cls-3" d="M875.63,10.87q22.68,0,40.81,9.68a71.42,71.42,0,0,1,28.35,26.8Q955,64.46,955,85.89q0,21.64-10.2,39a71.67,71.67,0,0,1-28.35,27.1q-18.13,9.79-40.81,9.79t-40.81-9.79a71.73,71.73,0,0,1-28.33-27.1q-10.22-17.31-10.21-39t10.21-38.75a70.75,70.75,0,0,1,28.33-26.69q18.15-9.58,40.81-9.59Zm.63,39.78a27.53,27.53,0,0,0-15.36,4.64A33.4,33.4,0,0,0,849.56,68a38.41,38.41,0,0,0-4.21,18.14,39,39,0,0,0,4.21,18.25,34.17,34.17,0,0,0,11.34,12.89A27.2,27.2,0,0,0,876.26,122a26.1,26.1,0,0,0,15.05-4.64A31.58,31.58,0,0,0,902,104.45a42.27,42.27,0,0,0,3.92-18.35A41.51,41.51,0,0,0,902,67.86a31,31,0,0,0-10.71-12.68,26.61,26.61,0,0,0-15.05-4.53Z"/><polygon class="cls-3" points="968.4 13.96 1016.21 13.96 1016.21 118.67 1076.4 118.67 1076.4 158.45 968.4 158.45 968.4 13.96 968.4 13.96"/><polygon class="cls-3" points="1088.77 13.96 1136.59 13.96 1136.59 158.45 1088.77 158.45 1088.77 13.96 1088.77 13.96"/><polygon class="cls-3" points="1254.29 13.96 1297.57 13.96 1297.57 158.45 1257.59 158.45 1200.69 84.65 1200.69 158.45 1157.2 158.45 1157.2 13.96 1197.2 13.96 1254.29 88.16 1254.29 13.96 1254.29 13.96"/><polygon class="cls-3" points="1318.18 13.96 1366 13.96 1366 158.45 1318.18 158.45 1318.18 13.96 1318.18 13.96"/><polygon class="cls-3" points="412.53 212.99 412.53 217.7 385.61 217.7 385.61 289.63 380.07 289.63 380.07 217.7 352.99 217.7 352.99 212.99 412.53 212.99 412.53 212.99"/><path class="cls-3" d="M431.86,234.87a22.26,22.26,0,0,1,8.43,1.58A18.89,18.89,0,0,1,447,241a21.26,21.26,0,0,1,4.45,7.38A29.6,29.6,0,0,1,453,258.5a2.6,2.6,0,0,1-.35,1.62,1.34,1.34,0,0,1-1.1.43h-38.9v1a36,36,0,0,0,1.41,10.66,21.85,21.85,0,0,0,4,7.72,16.54,16.54,0,0,0,6.29,4.69,20.73,20.73,0,0,0,8.23,1.56,25.08,25.08,0,0,0,7-.88,26.13,26.13,0,0,0,5-2,27.71,27.71,0,0,0,3.22-2,3.64,3.64,0,0,1,1.73-.9,1.24,1.24,0,0,1,1.09.54l1.4,1.73a14.68,14.68,0,0,1-3.44,3,24.38,24.38,0,0,1-4.76,2.41,34.59,34.59,0,0,1-5.64,1.59,30.1,30.1,0,0,1-6,.6,25.68,25.68,0,0,1-10.07-1.92,21.53,21.53,0,0,1-7.8-5.61,25.65,25.65,0,0,1-5-9,38.66,38.66,0,0,1-1.78-12.21,33.26,33.26,0,0,1,1.66-10.7,24.4,24.4,0,0,1,4.77-8.46,21.62,21.62,0,0,1,7.63-5.55,25.19,25.19,0,0,1,10.26-2Zm.08,3.85a20.17,20.17,0,0,0-7.46,1.31,16.4,16.4,0,0,0-5.71,3.74,19,19,0,0,0-3.89,5.85,26.69,26.69,0,0,0-2,7.64h35.48a23.82,23.82,0,0,0-1.2-7.78,16.53,16.53,0,0,0-3.36-5.82,14.36,14.36,0,0,0-5.19-3.66,16.93,16.93,0,0,0-6.7-1.28Z"/><path class="cls-3" d="M476.28,262.06l-18.74-26.32h4.92a1.58,1.58,0,0,1,1.11.33,3.81,3.81,0,0,1,.63.76L480,259.68a5.84,5.84,0,0,1,.92-1.94l14.79-20.86a2.82,2.82,0,0,1,.67-.82,1.5,1.5,0,0,1,1-.33h4.77L483.27,261.8l19.62,27.83h-4.94a1.61,1.61,0,0,1-1.2-.45,6.16,6.16,0,0,1-.69-.9l-16.37-23.83a5.4,5.4,0,0,1-.8,1.84L463.17,288.4a7,7,0,0,1-.79.87,1.43,1.43,0,0,1-1,.37h-4.61l19.5-27.57Z"/><path class="cls-3" d="M528.23,290.5c-3.64,0-6.49-1-8.5-3s-3-5.14-3-9.37V241.27h-7.75a1.47,1.47,0,0,1-1-.33,1.19,1.19,0,0,1-.38-.92v-2l9.22-.64,1.28-19.29a1.49,1.49,0,0,1,.41-.86,1.19,1.19,0,0,1,.94-.38h2.41v20.58h17v3.85h-17v36.56a11.41,11.41,0,0,0,.57,3.82,7.14,7.14,0,0,0,1.56,2.62,6.33,6.33,0,0,0,2.37,1.52,8.85,8.85,0,0,0,2.92.48,9.19,9.19,0,0,0,3.36-.56,14,14,0,0,0,2.43-1.25,14.69,14.69,0,0,0,1.69-1.25,1.86,1.86,0,0,1,1-.57,1.18,1.18,0,0,1,.87.54l1.41,2.28a15.13,15.13,0,0,1-5.23,3.66,16.41,16.41,0,0,1-6.58,1.37Z"/><path class="cls-3" d="M558.83,235.74v53.89h-5.14V235.74Zm2.28-18.57a4.09,4.09,0,0,1-.41,1.81,5.54,5.54,0,0,1-1.06,1.5,4.9,4.9,0,0,1-1.52,1,4.62,4.62,0,0,1-3.67,0,4.91,4.91,0,0,1-1.52-1,5.16,5.16,0,0,1-1-1.5,4.49,4.49,0,0,1-.38-1.81,4.91,4.91,0,0,1,.38-1.88,4.86,4.86,0,0,1,2.56-2.57,4.62,4.62,0,0,1,3.67,0,4.71,4.71,0,0,1,1.52,1,5,5,0,0,1,1.06,1.54,4.48,4.48,0,0,1,.41,1.88Z"/><polygon class="cls-3" points="584.57 210.82 584.57 289.63 579.41 289.63 579.41 210.82 584.57 210.82 584.57 210.82"/><path class="cls-3" d="M623.94,234.87a22.26,22.26,0,0,1,8.43,1.58,18.89,18.89,0,0,1,6.72,4.58,21.26,21.26,0,0,1,4.45,7.38,29.59,29.59,0,0,1,1.59,10.09,2.7,2.7,0,0,1-.35,1.62,1.34,1.34,0,0,1-1.1.43h-38.9v1a36.5,36.5,0,0,0,1.4,10.66,22.1,22.1,0,0,0,4,7.72,16.61,16.61,0,0,0,6.28,4.69,20.85,20.85,0,0,0,8.24,1.56,25.08,25.08,0,0,0,7-.88,26.13,26.13,0,0,0,5-2,27.7,27.7,0,0,0,3.22-2,3.64,3.64,0,0,1,1.73-.9,1.24,1.24,0,0,1,1.09.54l1.4,1.73a14.68,14.68,0,0,1-3.44,3,24.4,24.4,0,0,1-4.76,2.41,34.59,34.59,0,0,1-5.64,1.59,30.1,30.1,0,0,1-6,.6,25.68,25.68,0,0,1-10.07-1.92,21.53,21.53,0,0,1-7.8-5.61,25.44,25.44,0,0,1-5-9,38.66,38.66,0,0,1-1.78-12.21,33.25,33.25,0,0,1,1.66-10.7,24.59,24.59,0,0,1,4.76-8.46,21.68,21.68,0,0,1,7.64-5.55,25.19,25.19,0,0,1,10.26-2Zm.08,3.85a20.17,20.17,0,0,0-7.46,1.31,16.27,16.27,0,0,0-5.71,3.74,19,19,0,0,0-3.89,5.85,26.69,26.69,0,0,0-2,7.64h35.47a23.83,23.83,0,0,0-1.18-7.78,16.54,16.54,0,0,0-3.36-5.82,14.36,14.36,0,0,0-5.19-3.66,17,17,0,0,0-6.7-1.28Z"/><path class="cls-3" d="M747,251.29a45.42,45.42,0,0,1-2.65,16,34.28,34.28,0,0,1-7.48,12.07A32.22,32.22,0,0,1,725.35,287a40.32,40.32,0,0,1-14.9,2.65h-28V213h28a40.31,40.31,0,0,1,14.9,2.65,32.22,32.22,0,0,1,11.53,7.64,34.28,34.28,0,0,1,7.48,12.07A45.29,45.29,0,0,1,747,251.29Zm-5.74,0a42.75,42.75,0,0,0-2.22-14.3,30,30,0,0,0-6.27-10.62,26.3,26.3,0,0,0-9.72-6.61,33.57,33.57,0,0,0-12.62-2.28H688.08v67.67h22.36a33.57,33.57,0,0,0,12.62-2.28,26.3,26.3,0,0,0,9.72-6.61,29.88,29.88,0,0,0,6.27-10.62,42.88,42.88,0,0,0,2.22-14.34Z"/><path class="cls-3" d="M768.9,235.74v53.89h-5.15V235.74Zm2.27-18.57a4.1,4.1,0,0,1-.41,1.81,5.49,5.49,0,0,1-1,1.5,4.91,4.91,0,0,1-1.52,1,4.44,4.44,0,0,1-1.84.38,4.5,4.5,0,0,1-1.85-.38,5,5,0,0,1-1.51-1,5.16,5.16,0,0,1-1-1.5,4.27,4.27,0,0,1-.38-1.81,4.83,4.83,0,0,1,1.41-3.41,4.81,4.81,0,0,1,1.51-1,4.5,4.5,0,0,1,1.85-.38,4.44,4.44,0,0,1,1.84.38,4.72,4.72,0,0,1,1.52,1,5,5,0,0,1,1,1.54,4.48,4.48,0,0,1,.41,1.88Z"/><path class="cls-3" d="M805.73,234.82a23.67,23.67,0,0,1,6.53.87,19.76,19.76,0,0,1,5.4,2.43h13.81v1.79c0,.9-.52,1.39-1.52,1.47l-8.17.59a16,16,0,0,1,2.32,4.64,18.07,18.07,0,0,1,.82,5.49,17.18,17.18,0,0,1-1.41,7.07,15.69,15.69,0,0,1-3.93,5.42,17.84,17.84,0,0,1-6,3.49,23.33,23.33,0,0,1-7.8,1.24,24.12,24.12,0,0,1-8.44-1.4,10.85,10.85,0,0,0-3.58,3.09,5.91,5.91,0,0,0-1.31,3.47A4.23,4.23,0,0,0,794,278a10.6,10.6,0,0,0,4.3,1.81,38.45,38.45,0,0,0,6.13.73l7,.35c2.35.12,4.69.35,7,.68a22.34,22.34,0,0,1,6.13,1.7,10.85,10.85,0,0,1,4.3,3.41,9.57,9.57,0,0,1,1.63,5.83A13.27,13.27,0,0,1,828.8,299a17.11,17.11,0,0,1-4.84,5.47,25.45,25.45,0,0,1-7.67,3.82,33.13,33.13,0,0,1-10.07,1.44,38.21,38.21,0,0,1-10-1.17,23.63,23.63,0,0,1-7.18-3.14,13.78,13.78,0,0,1-4.36-4.58,11.17,11.17,0,0,1-1.45-5.52,10.55,10.55,0,0,1,2.81-7.37,18.29,18.29,0,0,1,7.75-4.77,10.12,10.12,0,0,1-4.31-2.65,6.87,6.87,0,0,1-1.6-4.83,7.36,7.36,0,0,1,.44-2.38,10,10,0,0,1,1.31-2.46,13.66,13.66,0,0,1,2.08-2.3,14.76,14.76,0,0,1,2.84-2,16.18,16.18,0,0,1-6-5.9,16.86,16.86,0,0,1-2.13-8.62,17.72,17.72,0,0,1,1.37-7.07,15.92,15.92,0,0,1,3.9-5.44,17.59,17.59,0,0,1,6.09-3.52,24,24,0,0,1,7.91-1.25Zm20,58.45a6,6,0,0,0-1.32-4.08,8.81,8.81,0,0,0-3.55-2.42,21.32,21.32,0,0,0-5.13-1.21c-1.93-.24-4-.41-6.06-.52l-6.36-.33a48,48,0,0,1-6-.65,27,27,0,0,0-3.82,1.86,13.78,13.78,0,0,0-3,2.39,10.59,10.59,0,0,0-2,2.92,8.67,8.67,0,0,0-.71,3.49,8.42,8.42,0,0,0,1.22,4.42,10.81,10.81,0,0,0,3.58,3.52,20.24,20.24,0,0,0,5.76,2.35,32.43,32.43,0,0,0,7.86.87,30.56,30.56,0,0,0,7.67-.92,21.44,21.44,0,0,0,6.17-2.6,13.37,13.37,0,0,0,4.12-4,9.26,9.26,0,0,0,1.48-5.1Zm-20-27.46a17.7,17.7,0,0,0,6.17-1,12.71,12.71,0,0,0,4.55-2.8,11.53,11.53,0,0,0,2.79-4.27,16.38,16.38,0,0,0,0-11.08,11.69,11.69,0,0,0-2.84-4.31,13,13,0,0,0-4.55-2.76,17.62,17.62,0,0,0-6.09-1,17.94,17.94,0,0,0-6.12,1,13,13,0,0,0-4.58,2.76,11.87,11.87,0,0,0-2.84,4.31,15.19,15.19,0,0,0-1,5.55,15,15,0,0,0,1,5.53A11.82,11.82,0,0,0,795,262a13.06,13.06,0,0,0,4.58,2.8,17.6,17.6,0,0,0,6.12,1Z"/><path class="cls-3" d="M849.27,235.74v53.89h-5.14V235.74Zm2.28-18.57a4.1,4.1,0,0,1-.41,1.81,5.54,5.54,0,0,1-1.06,1.5,5,5,0,0,1-1.51,1,4.5,4.5,0,0,1-1.85.38,4.39,4.39,0,0,1-1.84-.38,4.91,4.91,0,0,1-1.52-1,5.15,5.15,0,0,1-1-1.5,4.48,4.48,0,0,1-.37-1.81,4.91,4.91,0,0,1,.37-1.88,4.86,4.86,0,0,1,2.56-2.57,4.39,4.39,0,0,1,1.84-.38,4.5,4.5,0,0,1,1.85.38,4.81,4.81,0,0,1,1.51,1,5,5,0,0,1,1.06,1.54,4.49,4.49,0,0,1,.41,1.88Z"/><path class="cls-3" d="M883,290.5c-3.66,0-6.48-1-8.51-3s-3-5.14-3-9.37V241.27h-7.75a1.41,1.41,0,0,1-1-.33,1.14,1.14,0,0,1-.38-.92v-2l9.2-.64,1.29-19.29a1.39,1.39,0,0,1,.39-.86,1.19,1.19,0,0,1,.94-.38h2.41v20.58h17v3.85h-17v36.56a11.41,11.41,0,0,0,.57,3.82,7.16,7.16,0,0,0,1.58,2.62,6.28,6.28,0,0,0,2.35,1.52,8.91,8.91,0,0,0,2.92.48,9.19,9.19,0,0,0,3.36-.56,14.67,14.67,0,0,0,2.45-1.25,15.73,15.73,0,0,0,1.67-1.25,1.84,1.84,0,0,1,1-.57,1.23,1.23,0,0,1,.87.54l1.4,2.28a15.2,15.2,0,0,1-5.22,3.66A16.5,16.5,0,0,1,883,290.5Z"/><path class="cls-3" d="M941.37,289.63a1.86,1.86,0,0,1-2-1.51l-.76-6.88c-1.48,1.44-3,2.75-4.4,3.9a27.15,27.15,0,0,1-4.58,2.92,22.55,22.55,0,0,1-5.14,1.81,27.36,27.36,0,0,1-6.08.63,17.77,17.77,0,0,1-5.36-.82,13,13,0,0,1-4.61-2.49,12.26,12.26,0,0,1-3.22-4.31,14.79,14.79,0,0,1-1.21-6.31,11.18,11.18,0,0,1,1.94-6.34,16.08,16.08,0,0,1,6.09-5.09,39.47,39.47,0,0,1,10.67-3.47,93,93,0,0,1,15.68-1.52v-5.63q0-7.48-3.22-11.52t-9.56-4a18.08,18.08,0,0,0-6.63,1.09,23.37,23.37,0,0,0-4.64,2.38,32.47,32.47,0,0,0-3.09,2.38,3.26,3.26,0,0,1-2,1.09,1.77,1.77,0,0,1-1.63-1l-.91-1.56a31.32,31.32,0,0,1,8.88-6.39,24.87,24.87,0,0,1,10.56-2.17,19.23,19.23,0,0,1,7.59,1.39,14.1,14.1,0,0,1,5.38,4,17.24,17.24,0,0,1,3.22,6.23,28.68,28.68,0,0,1,1.09,8.16v35.09h-2.05Zm-21.67-2.87a22.56,22.56,0,0,0,5.76-.68,21,21,0,0,0,4.88-1.89,24.56,24.56,0,0,0,4.2-2.9q1.94-1.67,3.83-3.63v-14a95.79,95.79,0,0,0-13.24,1.17,37.76,37.76,0,0,0-9.15,2.57,13.37,13.37,0,0,0-5.3,3.87,8.22,8.22,0,0,0-1.71,5.11,11.27,11.27,0,0,0,.9,4.69,9,9,0,0,0,5.76,5.11,13.5,13.5,0,0,0,4.07.6Z"/><polygon class="cls-3" points="966.33 210.82 966.33 289.63 961.19 289.63 961.19 210.82 966.33 210.82 966.33 210.82"/><path class="cls-3" d="M1016.06,258.76v30.88h-5.53V213h19.78q13.48,0,20.34,5.9t6.85,16.85a22.54,22.54,0,0,1-1.88,9.26,20.46,20.46,0,0,1-5.38,7.29,25.37,25.37,0,0,1-8.57,4.77,35.22,35.22,0,0,1-11.37,1.7h-14.25Zm0-4.43h14.25a27.41,27.41,0,0,0,9.1-1.41,20,20,0,0,0,6.8-3.9,16.88,16.88,0,0,0,4.28-5.87,18.15,18.15,0,0,0,1.48-7.4q0-8.83-5.44-13.6t-16.22-4.76h-14.25v36.94Z"/><path class="cls-3" d="M1070.61,289.63V235.74h2.71a1.9,1.9,0,0,1,1.33.38,1.93,1.93,0,0,1,.46,1.31l.42,11.37a25.82,25.82,0,0,1,6.93-10.26,15.87,15.87,0,0,1,10.67-3.71,18.68,18.68,0,0,1,4.5.52,16.89,16.89,0,0,1,3.9,1.5l-.71,3.58a1,1,0,0,1-1.09.87,3.15,3.15,0,0,1-.91-.22c-.41-.15-.9-.31-1.5-.49a17.36,17.36,0,0,0-2.19-.49,17.78,17.78,0,0,0-3-.22,13.83,13.83,0,0,0-10,3.79q-3.94,3.79-6.38,10.94v35Z"/><path class="cls-3" d="M1120.27,235.74v53.89h-5.14V235.74Zm2.28-18.57a4.1,4.1,0,0,1-.41,1.81,5.53,5.53,0,0,1-1.06,1.5,5,5,0,0,1-1.51,1,4.5,4.5,0,0,1-1.85.38,4.39,4.39,0,0,1-1.84-.38,4.91,4.91,0,0,1-1.52-1,5.16,5.16,0,0,1-1-1.5,4.49,4.49,0,0,1-.38-1.81,4.92,4.92,0,0,1,.38-1.88,4.86,4.86,0,0,1,2.56-2.57,4.39,4.39,0,0,1,1.84-.38,4.5,4.5,0,0,1,1.85.38,4.81,4.81,0,0,1,1.51,1,5,5,0,0,1,1.06,1.54,4.48,4.48,0,0,1,.41,1.88Z"/><path class="cls-3" d="M1139.35,289.63V235.74h2.81a1.45,1.45,0,0,1,1.62,1.36l.49,8.12a30.17,30.17,0,0,1,8.59-7.49,21.28,21.28,0,0,1,10.92-2.86,20.25,20.25,0,0,1,7.82,1.41,14.43,14.43,0,0,1,5.61,4.07,18,18,0,0,1,3.36,6.39,28.85,28.85,0,0,1,1.13,8.44v34.45h-5.14V255.18c0-5-1.16-9-3.47-11.88s-5.85-4.31-10.62-4.31a18.81,18.81,0,0,0-9.86,2.73,28.93,28.93,0,0,0-8.13,7.5v40.41h-5.14Z"/><path class="cls-3" d="M1212.63,290.5q-5.47,0-8.5-3c-2-2-3-5.14-3-9.37V241.27h-7.75a1.47,1.47,0,0,1-1-.33,1.19,1.19,0,0,1-.38-.92v-2l9.22-.64,1.28-19.29a1.49,1.49,0,0,1,.41-.86,1.19,1.19,0,0,1,.94-.38h2.41v20.58h17v3.85h-17v36.56a11.41,11.41,0,0,0,.57,3.82,7.16,7.16,0,0,0,1.58,2.62,6.28,6.28,0,0,0,2.35,1.52,8.85,8.85,0,0,0,2.92.48,9.19,9.19,0,0,0,3.36-.56,14,14,0,0,0,2.43-1.25,14.67,14.67,0,0,0,1.69-1.25,1.84,1.84,0,0,1,1-.57,1.19,1.19,0,0,1,.86.54l1.41,2.28a15.13,15.13,0,0,1-5.23,3.66,16.4,16.4,0,0,1-6.58,1.37Z"/><path class="cls-3" d="M1243.23,235.74v53.89h-5.14V235.74Zm2.28-18.57a4.1,4.1,0,0,1-.41,1.81,5.53,5.53,0,0,1-1.06,1.5,5,5,0,0,1-1.51,1,4.5,4.5,0,0,1-1.85.38,4.39,4.39,0,0,1-1.84-.38,4.91,4.91,0,0,1-1.52-1,5.16,5.16,0,0,1-1-1.5,4.48,4.48,0,0,1-.37-1.81,4.91,4.91,0,0,1,.37-1.88,4.86,4.86,0,0,1,2.56-2.57,4.39,4.39,0,0,1,1.84-.38,4.5,4.5,0,0,1,1.85.38,4.81,4.81,0,0,1,1.51,1,5,5,0,0,1,1.06,1.54,4.48,4.48,0,0,1,.41,1.88Z"/><path class="cls-3" d="M1262.31,289.63V235.74h2.81a1.47,1.47,0,0,1,1.63,1.36l.48,8.12a30.36,30.36,0,0,1,8.59-7.49,21.28,21.28,0,0,1,10.92-2.86,20.2,20.2,0,0,1,7.82,1.41,14.43,14.43,0,0,1,5.61,4.07,18,18,0,0,1,3.36,6.39,28.83,28.83,0,0,1,1.14,8.44v34.45h-5.15V255.18c0-5-1.16-9-3.47-11.88s-5.85-4.31-10.62-4.31a18.81,18.81,0,0,0-9.86,2.73,28.93,28.93,0,0,0-8.13,7.5v40.41h-5.14Z"/><path class="cls-3" d="M1338.69,234.82a23.82,23.82,0,0,1,6.53.87,19.86,19.86,0,0,1,5.38,2.43h13.81v1.79q0,1.35-1.51,1.47l-8.18.59a16,16,0,0,1,2.32,4.64,18.07,18.07,0,0,1,.82,5.49,17.18,17.18,0,0,1-1.41,7.07,15.83,15.83,0,0,1-3.92,5.42,18,18,0,0,1-6,3.49,23.25,23.25,0,0,1-7.79,1.24,24.15,24.15,0,0,1-8.46-1.4,11.13,11.13,0,0,0-3.58,3.09,5.91,5.91,0,0,0-1.31,3.47A4.23,4.23,0,0,0,1327,278a10.66,10.66,0,0,0,4.31,1.81,38.07,38.07,0,0,0,6.12.73l7,.35c2.37.12,4.69.35,7,.68a22.11,22.11,0,0,1,6.12,1.7,10.89,10.89,0,0,1,4.31,3.41,9.56,9.56,0,0,1,1.62,5.83,13.4,13.4,0,0,1-1.67,6.44,17,17,0,0,1-4.85,5.47,25.36,25.36,0,0,1-7.65,3.82,33.29,33.29,0,0,1-10.09,1.44,38.28,38.28,0,0,1-10-1.17,23.93,23.93,0,0,1-7.18-3.14,13.6,13.6,0,0,1-4.35-4.58,11,11,0,0,1-1.47-5.52A10.55,10.55,0,0,1,1319,288a18.29,18.29,0,0,1,7.75-4.77,10.2,10.2,0,0,1-4.31-2.65,6.86,6.86,0,0,1-1.59-4.83,7,7,0,0,1,.44-2.38,10,10,0,0,1,1.29-2.46,13.76,13.76,0,0,1,2.09-2.3,14,14,0,0,1,2.84-2,16.08,16.08,0,0,1-6-5.9,16.86,16.86,0,0,1-2.15-8.62,17.49,17.49,0,0,1,1.39-7.07,15.74,15.74,0,0,1,3.9-5.44,17.46,17.46,0,0,1,6.09-3.52,23.91,23.91,0,0,1,7.91-1.25Zm20,58.45a6,6,0,0,0-1.33-4.08,8.81,8.81,0,0,0-3.55-2.42,21.2,21.2,0,0,0-5.11-1.21c-1.93-.24-4-.41-6.08-.52l-6.36-.33a48.59,48.59,0,0,1-6-.65,27,27,0,0,0-3.82,1.86,14.11,14.11,0,0,0-3,2.39,10.25,10.25,0,0,0-1.94,2.92,8.45,8.45,0,0,0-.71,3.49,8.54,8.54,0,0,0,1.21,4.42,10.94,10.94,0,0,0,3.58,3.52,20.17,20.17,0,0,0,5.78,2.35,32.32,32.32,0,0,0,7.84.87,30.56,30.56,0,0,0,7.67-.92,21.28,21.28,0,0,0,6.17-2.6,13.37,13.37,0,0,0,4.12-4,9.27,9.27,0,0,0,1.5-5.1Zm-20-27.46a17.76,17.76,0,0,0,6.17-1,12.65,12.65,0,0,0,4.54-2.8,11.56,11.56,0,0,0,2.8-4.27,16.6,16.6,0,0,0,0-11.08,11.72,11.72,0,0,0-2.85-4.31,12.93,12.93,0,0,0-4.54-2.76,17.73,17.73,0,0,0-6.09-1,18,18,0,0,0-6.13,1,12.93,12.93,0,0,0-4.57,2.76,11.54,11.54,0,0,0-2.84,4.31,15.19,15.19,0,0,0-1,5.55,15,15,0,0,0,1,5.53A11.49,11.49,0,0,0,1328,262a13,13,0,0,0,4.57,2.8,17.63,17.63,0,0,0,6.13,1Z"/></svg>