<?xml version="1.0" encoding="UTF-8" standalone="no"?>
<svg
   xmlns:dc="http://purl.org/dc/elements/1.1/"
   xmlns:cc="http://creativecommons.org/ns#"
   xmlns:rdf="http://www.w3.org/1999/02/22-rdf-syntax-ns#"
   xmlns:svg="http://www.w3.org/2000/svg"
   xmlns="http://www.w3.org/2000/svg"
   id="Livello_1"
   data-name="Livello 1"
   viewBox="0 0 76.455186 59.999992"
   version="1.1"
   width="76.455185"
   height="59.999992">
  <metadata
     id="metadata87">
    <rdf:RDF>
      <cc:Work
         rdf:about="">
        <dc:format>image/svg+xml</dc:format>
        <dc:type
           rdf:resource="http://purl.org/dc/dcmitype/StillImage" />
        <dc:title>logo</dc:title>
      </cc:Work>
    </rdf:RDF>
  </metadata>
  <defs
     id="defs4">
    <style
       id="style2">.cls-1{fill:#e42026;}.cls-2{fill:#1c9747;}.cls-3{fill:#231f20;}</style>
  </defs>
  <title
     id="title6">logo</title>
  <path
     class="cls-1"
     d="m 60.000504,32.255812 a 1.0984429,1.0968287 0 0 0 -1.02338,-1.52641 h -24.5026 a 0.95930666,0.95789709 0 0 0 -0.69934,1.68728 l 17.32611,17.30065 a 1.0984429,1.0968287 0 0 0 1.80144,-0.36561 30.190699,30.146337 0 0 1 7.09594,-17.10322"
     id="path8"
     style="fill:#e42026;stroke-width:0.18293923" />
  <g
     id="g980">
    <path
       style="fill:#1c9747;stroke-width:0.18293923"
       id="path10"
       d="M 32.303274,0.08766165 A 1.0984429,1.0968287 0 0 0 30.774604,1.1095416 V 25.574302 a 0.95930666,0.95789709 0 0 0 1.68794,0.70014 L 49.790474,8.9719716 a 1.0984429,1.0968287 0 0 0 -0.36614,-1.7988 30.734428,30.689268 0 0 1 -9.1244,-2.19366 30.655707,30.610661 0 0 1 -7.99849,-4.89184995"
       class="cls-2" />
    <path
       style="fill:#191919;fill-opacity:1;stroke-width:0.18293923"
       id="path12"
       d="m 0.0877736,27.746022 a 1.0984429,1.0968287 0 0 0 1.01972,1.52642 H 25.611924 a 0.9611374,0.95972514 0 0 0 0.69934,-1.68729 L 8.9851636,10.284512 a 1.0984429,1.0968287 0 0 0 -1.80511,0.36561 30.708798,30.663675 0 0 1 -2.19688,9.10916 30.730768,30.685612 0 0 1 -4.8954,7.98674"
       class="cls-3" />
    <path
       style="fill:#191919;fill-opacity:1;stroke-width:0.18293923"
       id="path14"
       d="m 27.785014,59.912352 a 1.0984429,1.0968287 0 0 0 1.52866,-1.01823 v -24.46659 a 0.9611374,0.95972514 0 0 0 -1.68977,-0.70014 l -17.3261,17.30247 a 1.0984429,1.0968287 0 0 0 0.36614,1.7988 30.708798,30.663675 0 0 1 9.12257,2.19366 30.730768,30.685612 0 0 1 8.00765,4.88637"
       class="cls-3" />
    <path
       style="fill:#191919;fill-opacity:1;stroke-width:0.18293923"
       id="path16"
       d="m 10.458904,7.2554316 a 1.0984429,1.0968287 0 0 0 -0.36614,1.7988 l 17.32793,17.3024804 a 0.9611374,0.95972514 0 0 0 1.68977,-0.70015 V 1.1899716 a 1.0984429,1.0968287 0 0 0 -1.52134,-1.02004995 30.708798,30.663675 0 0 1 -8.00582,4.88819995 30.710629,30.665503 0 0 1 -9.12257,2.19366"
       class="cls-3" />
    <path
       style="fill:#191919;fill-opacity:1;stroke-width:0.18293923"
       id="path18"
       d="m 7.2624336,49.558292 a 1.0984429,1.0968287 0 0 0 1.80511,0.3656 L 26.393654,32.610452 a 0.9611374,0.95972514 0 0 0 -0.69935,-1.68728 H 1.1898836 a 1.0984429,1.0968287 0 0 0 -1.01972,1.52642 30.732596,30.68744 0 0 1 4.89356,7.99588 30.708798,30.663675 0 0 1 2.19688,9.10916"
       class="cls-3" />
    <path
       style="fill:#191919;fill-opacity:1;stroke-width:0.18293923"
       id="path20"
       d="m 49.627544,52.746402 a 1.0984429,1.0968287 0 0 0 0.36614,-1.7988 l -17.3261,-17.30247 a 0.9611374,0.95972514 0 0 0 -1.68977,0.70014 v 24.46477 a 1.0984429,1.0968287 0 0 0 1.52867,1.02187 30.192528,30.148165 0 0 1 17.13021,-7.08551"
       class="cls-3" />
    <path
       style="fill:#191919;fill-opacity:1;stroke-width:0.18293923"
       id="path22"
       d="m 68.529914,15.130662 h 7.50602 v 11.04324 q -2.22434,1.50631 -5.49221,2.48615 a 21.21093,21.179763 0 0 1 -6.0927,0.97983 q -4.11366,0 -7.37787,-1.78966 a 13.130052,13.110759 0 0 1 -5.11508,-4.93573 q -1.84721,-3.14607 -1.84904,-7.10379 a 13.239897,13.220442 0 0 1 7.24606,-11.9810304 q 3.39785,-1.77138 7.66163,-1.76955 a 18.071214,18.044661 0 0 1 6.2117,1.11877 q 3.11225,1.13339 5.22676,3.01445 l -4.95216,5.9996504 a 9.9409067,9.9262999 0 0 0 -3.11225,-2.09311 8.6300986,8.6174178 0 0 0 -3.41433,-0.7696104 5.5691047,5.5609217 0 0 0 -3.01888,0.8482104 5.7851315,5.7766311 0 0 0 -2.10718,2.32345 7.1746615,7.1641193 0 0 0 -0.75426,3.31608 7.2240922,7.2134773 0 0 0 0.77074,3.37275 5.9151143,5.9064229 0 0 0 2.1328,2.33624 5.6350114,5.6267315 0 0 0 3.05734,0.84822 q 1.43346,0 3.4784,-0.90489 v -6.33967 z"
       class="cls-3" />
  </g>
</svg>
