<?xml version="1.0" encoding="UTF-8" standalone="no"?><!DOCTYPE svg PUBLIC "-//W3C//DTD SVG 1.1//EN" "http://www.w3.org/Graphics/SVG/1.1/DTD/svg11.dtd"><svg width="100%" height="100%" viewBox="0 0 75 75" version="1.1" xmlns="http://www.w3.org/2000/svg" xmlns:xlink="http://www.w3.org/1999/xlink" xml:space="preserve" xmlns:serif="http://www.serif.com/" style="fill-rule:evenodd;clip-rule:evenodd;stroke-linejoin:round;stroke-miterlimit:1.41421;"><rect id="Artboard1" x="0" y="0" width="75" height="75" style="fill:none;"/><clipPath id="_clip1"><rect id="Artboard11" serif:id="Artboard1" x="0" y="0" width="75" height="75"/></clipPath><g clip-path="url(#_clip1)"><path d="M36.314,0.684c0.734,-0.423 1.638,-0.423 2.372,0c5.084,2.936 25.02,14.446 30.104,17.382c0.734,0.423 1.186,1.206 1.186,2.053c0,5.871 0,28.891 0,34.762c0,0.847 -0.452,1.63 -1.186,2.053c-5.084,2.936 -25.02,14.446 -30.104,17.382c-0.734,0.423 -1.638,0.423 -2.372,0c-5.084,-2.936 -25.02,-14.446 -30.104,-17.382c-0.734,-0.423 -1.186,-1.206 -1.186,-2.053c0,-5.871 0,-28.891 0,-34.762c0,-0.847 0.452,-1.63 1.186,-2.053c5.084,-2.936 25.02,-14.446 30.104,-17.382Z" style="fill:url(#_Linear2);"/><path d="M37.538,0.367c0.389,0.01 0.771,0.112 1.113,0.298c10.106,5.723 20.164,11.53 30.174,17.421c0.689,0.421 1.13,1.187 1.151,1.993c0.096,11.614 0.096,23.228 0,34.842c-0.021,0.807 -0.464,1.573 -1.151,1.993c-10.01,5.891 -20.068,11.698 -30.174,17.421c-0.707,0.385 -1.591,0.387 -2.302,0c-10.106,-5.723 -20.164,-11.53 -30.174,-17.421c-0.689,-0.421 -1.13,-1.187 -1.151,-1.993c-0.096,-11.614 -0.096,-23.228 0,-34.842c0.02,-0.804 0.461,-1.571 1.151,-1.993c10.01,-5.891 20.068,-11.698 30.174,-17.421c0.371,-0.202 0.697,-0.302 1.189,-0.298Zm-28.838,19.278c-0.658,0.38 -1.063,1.081 -1.063,1.841c0,5.357 0,26.671 0,32.028c0,0.76 0.405,1.461 1.063,1.841c4.639,2.679 23.098,13.336 27.737,16.014c0.658,0.38 1.468,0.38 2.126,0c4.639,-2.678 23.098,-13.335 27.737,-16.014c0.658,-0.38 1.063,-1.081 1.063,-1.841c0,-5.357 0,-26.671 0,-32.028c0,-0.76 -0.405,-1.461 -1.063,-1.841c-4.639,-2.679 -23.098,-13.336 -27.737,-16.014c-0.658,-0.38 -1.468,-0.38 -2.126,0c-9.246,5.338 -18.492,10.676 -27.737,16.014Z" style="fill:#224b62;fill-rule:nonzero;"/><g id="Bandiera"><g><path d="M37.073,61.653l12.675,-7.318l0,-0.618l-12.14,-7.009l-12.675,7.318l0,0.618l12.14,7.009Z" style="fill:#b3b3b3;"/><path d="M37.073,61.035l12.675,-7.318l-12.14,-7.009l-12.675,7.318l12.14,7.009Z" style="fill:#ccc;"/><path d="M37.125,58.507l7.989,-4.613l0,-0.365l-7.652,-4.418l-7.99,4.612l0,0.365l7.653,4.419Z" style="fill:#bfbfbf;"/><path d="M37.125,58.142l7.989,-4.613l-7.652,-4.418l-7.99,4.612l7.653,4.419Z" style="fill:#ccc;"/><g><path d="M37.202,55.183l2.653,-1.531l0,-0.177l-2.541,-1.412l-2.653,1.477l0,0.176l2.541,1.467Z" style="fill:#d9d9d9;"/><path d="M37.202,55.007l2.653,-1.532l-2.541,-1.467l-2.653,1.532l2.541,1.467Z" style="fill:#e6e6e6;"/></g></g><g><g><path d="M37.167,53.933l0.417,-0.241l0,-39.951l-0.417,0.24l0,39.952Z" style="fill:#b3b3b3;"/><path d="M36.75,13.741l0.417,-0.241l0.417,0.241l-0.417,0.24l-0.417,-0.24Z" style="fill:#e6e6e6;"/><path d="M37.167,53.933l-0.417,-0.241l0,-39.951l0.417,0.24l0,39.952Z" style="fill:#8c8c8c;"/></g><path d="M37.31,13.899l0,13.478l15.73,9.208l0,-13.604l-15.73,-9.082Z" style="fill:#fff;"/><g><path d="M46.652,24.284c0.021,-0.054 -0.016,-0.147 -0.069,-0.178l-1.663,-0.96c-0.03,-0.018 -0.053,-0.008 -0.065,0.016c-0.008,0.028 -0.004,0.068 0.018,0.11l1.175,2.246c0.038,0.072 0.102,0.092 0.123,0.038c0,0 0.015,-0.385 0.149,-0.739c0.134,-0.354 0.332,-0.533 0.332,-0.533" style="fill:#ff1a21;fill-rule:nonzero;"/><path d="M44.773,20.285c-0.05,-0.056 -0.104,-0.039 -0.104,0.032l0,2.217c0,0.041 0.017,0.081 0.04,0.111c0.025,0.024 0.053,0.035 0.075,0.019l1.175,-0.889c0.038,-0.029 0.025,-0.122 -0.024,-0.177c0,0 -0.295,-0.191 -0.619,-0.557c-0.324,-0.365 -0.543,-0.756 -0.543,-0.756" style="fill:#00983e;fill-rule:nonzero;"/><path d="M42.587,21.529c-0.02,0.054 0.016,0.147 0.069,0.178l1.663,0.96c0.03,0.017 0.053,0.008 0.065,-0.016c0.008,-0.028 0.004,-0.068 -0.018,-0.11l-1.175,-2.246c-0.038,-0.072 -0.102,-0.092 -0.123,-0.038c0,0 -0.015,0.385 -0.149,0.739c-0.134,0.354 -0.332,0.533 -0.332,0.533" style="fill:#1f191a;fill-rule:nonzero;"/><path d="M44.466,25.528c0.05,0.056 0.104,0.039 0.104,-0.032l0,-2.217c0,-0.041 -0.017,-0.081 -0.04,-0.111c-0.025,-0.024 -0.053,-0.035 -0.075,-0.019l-1.175,0.889c-0.038,0.029 -0.025,0.121 0.024,0.177c0,0 0.295,0.191 0.619,0.557c0.324,0.365 0.543,0.756 0.543,0.756" style="fill:#1f191a;fill-rule:nonzero;"/><path d="M43.291,20.078c-0.05,-0.001 -0.062,0.077 -0.025,0.149l1.176,2.247c0.022,0.041 0.05,0.063 0.075,0.067c0.023,-0.003 0.04,-0.024 0.04,-0.064l0,-2.217c0,-0.071 -0.054,-0.151 -0.104,-0.153c0,0 -0.22,0.138 -0.543,0.13c-0.324,-0.008 -0.619,-0.158 -0.619,-0.158" style="fill:#1f191a;fill-rule:nonzero;"/><path d="M43.074,23.786c0.02,0.078 0.085,0.132 0.122,0.103l1.176,-0.889c0.022,-0.016 0.026,-0.051 0.018,-0.089c-0.012,-0.037 -0.035,-0.073 -0.065,-0.091l-1.663,-0.96c-0.054,-0.031 -0.09,0.021 -0.069,0.098c0,0 0.198,0.407 0.332,0.917c0.134,0.509 0.149,0.911 0.149,0.911" style="fill:#1f191a;fill-rule:nonzero;"/><path d="M45.949,25.735c0.049,0.001 0.062,-0.077 0.024,-0.149l-1.176,-2.247c-0.021,-0.041 -0.05,-0.063 -0.074,-0.067c-0.023,0.003 -0.04,0.024 -0.04,0.064l0,2.217c0,0.071 0.054,0.151 0.103,0.152c0,0 0.22,-0.137 0.544,-0.129c0.323,0.008 0.619,0.159 0.619,0.159" style="fill:#1f191a;fill-rule:nonzero;"/><path d="M47.231,23.067l0.51,0.294l0,1.001c-0.101,0.032 -0.225,0.036 -0.373,0.01c-0.148,-0.026 -0.285,-0.076 -0.413,-0.15c-0.187,-0.108 -0.353,-0.258 -0.501,-0.451c-0.148,-0.194 -0.263,-0.41 -0.347,-0.648c-0.084,-0.238 -0.126,-0.477 -0.126,-0.716c0,-0.237 0.044,-0.425 0.131,-0.565c0.087,-0.139 0.208,-0.218 0.361,-0.237c0.154,-0.018 0.327,0.029 0.52,0.14c0.14,0.081 0.28,0.196 0.421,0.345c0.141,0.15 0.259,0.309 0.355,0.478l-0.336,0.35c-0.059,-0.115 -0.13,-0.218 -0.211,-0.312c-0.081,-0.093 -0.158,-0.161 -0.232,-0.204c-0.075,-0.043 -0.143,-0.057 -0.205,-0.041c-0.061,0.016 -0.109,0.058 -0.143,0.127c-0.034,0.069 -0.051,0.159 -0.051,0.271c0,0.114 0.017,0.226 0.052,0.336c0.035,0.11 0.084,0.208 0.145,0.295c0.062,0.087 0.131,0.152 0.207,0.196c0.065,0.038 0.144,0.056 0.236,0.054l0,-0.573l0,0Z" style="fill:#1f191a;fill-rule:nonzero;"/></g><path d="M50.18,29.92l-10.01,-5.779l0,1.39l10.01,5.779l0,-1.39Z" style="fill:#e6e6e6;"/><path d="M49.763,31.936l-9.176,-5.297l0,0.576l9.176,5.298l0,-0.577Z" style="fill:#e6e6e6;"/></g></g></g><defs><linearGradient id="_Linear2" x1="0" y1="0" x2="1" y2="0" gradientUnits="userSpaceOnUse" gradientTransform="matrix(3.85761e-15,62.9996,-62.9996,3.85761e-15,21.4341,11.625)"><stop offset="0" style="stop-color:#d4d4d4;stop-opacity:1"/><stop offset="1" style="stop-color:#fff;stop-opacity:1"/></linearGradient></defs></svg>