<?xml version="1.0" encoding="UTF-8" standalone="no"?><!DOCTYPE svg PUBLIC "-//W3C//DTD SVG 1.1//EN" "http://www.w3.org/Graphics/SVG/1.1/DTD/svg11.dtd"><svg width="100%" height="100%" viewBox="0 0 75 75" version="1.1" xmlns="http://www.w3.org/2000/svg" xmlns:xlink="http://www.w3.org/1999/xlink" xml:space="preserve" xmlns:serif="http://www.serif.com/" style="fill-rule:evenodd;clip-rule:evenodd;stroke-linejoin:round;stroke-miterlimit:1.41421;"><rect id="manica" x="0" y="0" width="75" height="75" style="fill:none;"/><path d="M36.689,0.684c0.734,-0.423 1.638,-0.423 2.372,0c5.084,2.936 25.02,14.446 30.104,17.382c0.734,0.423 1.186,1.206 1.186,2.053c0,5.871 0,28.891 0,34.762c0,0.847 -0.452,1.63 -1.186,2.053c-5.084,2.936 -25.02,14.446 -30.104,17.382c-0.734,0.423 -1.638,0.423 -2.372,0c-5.084,-2.936 -25.02,-14.446 -30.104,-17.382c-0.734,-0.423 -1.186,-1.206 -1.186,-2.053c0,-5.871 0,-28.891 0,-34.762c0,-0.847 0.452,-1.63 1.186,-2.053c5.084,-2.936 25.02,-14.446 30.104,-17.382Z" style="fill:url(#_Linear1);"/><path d="M35.399,13.687l1.299,0.75l0,1.875l-1.299,-0.75l0,-1.875Z" style="fill:url(#_Linear2);"/><path d="M35.399,15.188l1.299,-0.75l0,2.249l-1.299,-1.499Z" style="fill:url(#_Linear3);"/><path d="M34.1,14.438l1.299,-0.75l0,2.249l-1.299,-1.499Z" style="fill:url(#_Linear4);"/><g><path d="M68.849,34.5l0.108,19.204c0,0.759 -0.405,1.461 -1.062,1.84l-18.105,9.577l-15.69,-9.059l0,-41.625l34.749,20.063Z" style="fill:#fff;"/><g><path d="M64.715,47.725c0.064,-0.168 -0.049,-0.458 -0.215,-0.554l-5.16,-2.979c-0.095,-0.055 -0.166,-0.025 -0.204,0.048c-0.024,0.088 -0.011,0.213 0.056,0.341l3.649,6.972c0.118,0.225 0.316,0.287 0.38,0.119c0,0 0.047,-1.195 0.463,-2.294c0.416,-1.1 1.031,-1.653 1.031,-1.653" style="fill:#ff1a21;fill-rule:nonzero;"/><path d="M58.882,35.311c-0.153,-0.173 -0.322,-0.12 -0.322,0.101l0,6.88c0,0.127 0.053,0.253 0.124,0.344c0.077,0.076 0.165,0.109 0.232,0.059l3.649,-2.759c0.117,-0.088 0.078,-0.377 -0.075,-0.55c0,0 -0.917,-0.592 -1.922,-1.727c-1.005,-1.135 -1.686,-2.348 -1.686,-2.348" style="fill:#00983e;fill-rule:nonzero;"/><path d="M52.098,39.172c-0.064,0.167 0.048,0.457 0.215,0.553l5.16,2.98c0.094,0.054 0.166,0.024 0.204,-0.048c0.023,-0.089 0.011,-0.214 -0.057,-0.342l-3.648,-6.972c-0.118,-0.224 -0.317,-0.286 -0.38,-0.118c0,0 -0.048,1.194 -0.464,2.294c-0.416,1.099 -1.03,1.653 -1.03,1.653" style="fill:#1f191a;fill-rule:nonzero;"/><path d="M57.931,51.585c0.153,0.174 0.322,0.121 0.322,-0.101l0,-6.88c0,-0.126 -0.054,-0.252 -0.125,-0.343c-0.076,-0.076 -0.164,-0.109 -0.231,-0.059l-3.649,2.759c-0.118,0.088 -0.078,0.376 0.075,0.549c0,0 0.917,0.592 1.921,1.727c1.005,1.135 1.687,2.348 1.687,2.348" style="fill:#1f191a;fill-rule:nonzero;"/><path d="M54.282,34.671c-0.154,-0.004 -0.193,0.238 -0.076,0.462l3.649,6.973c0.067,0.127 0.155,0.195 0.232,0.208c0.071,-0.009 0.124,-0.074 0.124,-0.2l0,-6.88c0,-0.222 -0.168,-0.469 -0.322,-0.473c0,0 -0.681,0.426 -1.685,0.401c-1.005,-0.025 -1.922,-0.491 -1.922,-0.491" style="fill:#1f191a;fill-rule:nonzero;"/><path d="M53.609,46.178c0.063,0.241 0.262,0.409 0.38,0.32l3.649,-2.758c0.067,-0.051 0.079,-0.161 0.056,-0.277c-0.038,-0.117 -0.109,-0.228 -0.204,-0.283l-5.16,-2.979c-0.166,-0.096 -0.279,0.063 -0.215,0.305c0,0 0.614,1.263 1.03,2.843c0.417,1.58 0.464,2.829 0.464,2.829" style="fill:#1f191a;fill-rule:nonzero;"/><path d="M62.531,52.226c0.153,0.004 0.193,-0.239 0.075,-0.462l-3.648,-6.973c-0.067,-0.127 -0.156,-0.196 -0.232,-0.208c-0.071,0.009 -0.124,0.073 -0.124,0.2l0,6.88c0,0.221 0.168,0.469 0.322,0.473c0,0 0.681,-0.427 1.686,-0.401c1.005,0.025 1.921,0.491 1.921,0.491" style="fill:#1f191a;fill-rule:nonzero;"/><path d="M66.512,43.946l1.581,0.913l0,3.106c-0.312,0.102 -0.698,0.112 -1.156,0.031c-0.458,-0.081 -0.886,-0.236 -1.284,-0.466c-0.577,-0.333 -1.095,-0.8 -1.553,-1.4c-0.459,-0.6 -0.818,-1.27 -1.077,-2.01c-0.26,-0.74 -0.39,-1.48 -0.39,-2.222c0,-0.735 0.135,-1.318 0.406,-1.752c0.27,-0.434 0.644,-0.68 1.12,-0.737c0.477,-0.056 1.015,0.089 1.613,0.434c0.435,0.251 0.871,0.608 1.308,1.072c0.437,0.465 0.804,0.959 1.101,1.484l-1.041,1.084c-0.186,-0.355 -0.405,-0.677 -0.656,-0.967c-0.252,-0.29 -0.492,-0.501 -0.719,-0.632c-0.234,-0.135 -0.445,-0.178 -0.636,-0.129c-0.191,0.049 -0.339,0.18 -0.445,0.394c-0.106,0.215 -0.159,0.495 -0.159,0.841c0,0.354 0.054,0.701 0.162,1.042c0.109,0.342 0.259,0.648 0.45,0.917c0.19,0.269 0.405,0.472 0.643,0.61c0.202,0.116 0.445,0.172 0.732,0.167l0,-1.78l0,0Z" style="fill:#1f191a;fill-rule:nonzero;"/></g><path d="M64.247,58.625l-19.651,-11.345l0,4.313l16.258,9.387l3.393,-2.355Z" style="fill:#e6e6e6;"/><path d="M58.417,62.264l-12.527,-7.232l0,1.79l11.027,6.366l1.5,-0.924Z" style="fill:#e6e6e6;"/></g><path d="M37.538,0.367c0.389,0.01 0.771,0.112 1.113,0.298c10.106,5.723 20.164,11.53 30.174,17.421c0.689,0.421 1.13,1.187 1.151,1.993c0.096,11.614 0.096,23.228 0,34.842c-0.021,0.807 -0.464,1.573 -1.151,1.993c-10.01,5.891 -20.068,11.698 -30.174,17.421c-0.707,0.385 -1.591,0.387 -2.302,0c-10.106,-5.723 -20.164,-11.53 -30.174,-17.421c-0.689,-0.421 -1.13,-1.187 -1.151,-1.993c-0.096,-11.614 -0.096,-23.228 0,-34.842c0.02,-0.804 0.461,-1.571 1.151,-1.993c10.01,-5.891 20.068,-11.698 30.174,-17.421c0.371,-0.202 0.697,-0.302 1.189,-0.298Zm-28.838,19.278c-0.658,0.38 -1.063,1.081 -1.063,1.841c0,5.357 0,26.671 0,32.028c0,0.76 0.405,1.461 1.063,1.841c4.639,2.679 23.098,13.336 27.737,16.014c0.658,0.38 1.468,0.38 2.126,0c4.639,-2.678 23.098,-13.335 27.737,-16.014c0.658,-0.38 1.063,-1.081 1.063,-1.841c0,-5.357 0,-26.671 0,-32.028c0,-0.76 -0.405,-1.461 -1.063,-1.841c-4.639,-2.679 -23.098,-13.336 -27.737,-16.014c-0.658,-0.38 -1.468,-0.38 -2.126,0c-9.246,5.338 -18.492,10.676 -27.737,16.014Z" style="fill:#224b62;fill-rule:nonzero;"/><defs><linearGradient id="_Linear1" x1="0" y1="0" x2="1" y2="0" gradientUnits="userSpaceOnUse" gradientTransform="matrix(3.85761e-15,62.9996,-62.9996,3.85761e-15,21.8091,11.625)"><stop offset="0" style="stop-color:#d4d4d4;stop-opacity:1"/><stop offset="1" style="stop-color:#fff;stop-opacity:1"/></linearGradient><linearGradient id="_Linear2" x1="0" y1="0" x2="1" y2="0" gradientUnits="userSpaceOnUse" gradientTransform="matrix(1.29904,1.875,-1.875,1.29904,35.3988,14.0625)"><stop offset="0" style="stop-color:#fff;stop-opacity:1"/><stop offset="1" style="stop-color:#383739;stop-opacity:1"/></linearGradient><linearGradient id="_Linear3" x1="0" y1="0" x2="1" y2="0" gradientUnits="userSpaceOnUse" gradientTransform="matrix(1.14811e-16,1.875,-1.875,1.14811e-16,36.1043,14.561)"><stop offset="0" style="stop-color:#fff;stop-opacity:1"/><stop offset="1" style="stop-color:#b3b3b3;stop-opacity:1"/></linearGradient><linearGradient id="_Linear4" x1="0" y1="0" x2="1" y2="0" gradientUnits="userSpaceOnUse" gradientTransform="matrix(1.14811e-16,1.875,-1.875,1.14811e-16,34.8053,13.811)"><stop offset="0" style="stop-color:#fff;stop-opacity:1"/><stop offset="1" style="stop-color:#b3b3b3;stop-opacity:1"/></linearGradient></defs></svg>