<?xml version="1.0" encoding="UTF-8" standalone="no"?><!DOCTYPE svg PUBLIC "-//W3C//DTD SVG 1.1//EN" "http://www.w3.org/Graphics/SVG/1.1/DTD/svg11.dtd"><svg width="100%" height="100%" viewBox="0 0 75 75" version="1.1" xmlns="http://www.w3.org/2000/svg" xmlns:xlink="http://www.w3.org/1999/xlink" xml:space="preserve" xmlns:serif="http://www.serif.com/" style="fill-rule:evenodd;clip-rule:evenodd;stroke-linejoin:round;stroke-miterlimit:1.41421;"><rect id="occhielli" x="0" y="0" width="75" height="75" style="fill:none;"/><path d="M36.314,0.684c0.734,-0.423 1.638,-0.423 2.372,0c5.084,2.936 25.02,14.446 30.104,17.382c0.734,0.423 1.186,1.206 1.186,2.053c0,5.871 0,28.891 0,34.762c0,0.847 -0.452,1.63 -1.186,2.053c-5.084,2.936 -25.02,14.446 -30.104,17.382c-0.734,0.423 -1.638,0.423 -2.372,0c-5.084,-2.936 -25.02,-14.446 -30.104,-17.382c-0.734,-0.423 -1.186,-1.206 -1.186,-2.053c0,-5.871 0,-28.891 0,-34.762c0,-0.847 0.452,-1.63 1.186,-2.053c5.084,-2.936 25.02,-14.446 30.104,-17.382Z" style="fill:url(#_Linear1);"/><path d="M36.314,0.684c0.734,-0.423 1.638,-0.423 2.372,0c5.084,2.936 25.02,14.446 30.104,17.382c0.734,0.423 1.186,1.206 1.186,2.053c0,5.871 0,28.891 0,34.762c0,0.847 -0.452,1.63 -1.186,2.053c-5.084,2.936 -25.02,14.446 -30.104,17.382c-0.734,0.423 -1.638,0.423 -2.372,0c-5.084,-2.936 -25.02,-14.446 -30.104,-17.382c-0.734,-0.423 -1.186,-1.206 -1.186,-2.053c0,-5.871 0,-28.891 0,-34.762c0,-0.847 0.452,-1.63 1.186,-2.053c5.084,-2.936 25.02,-14.446 30.104,-17.382Z" style="fill:url(#_Linear2);"/><g id="Bandiera"><g><path d="M32.886,5.531l0,65.809l5.953,1.508l23.786,-12.764l0,-1.209l1.568,-42.448l-28.8,-12.321l-2.507,1.425Z" style="fill:#fff;"/><g><path d="M53.59,31.558c0.064,-0.17 -0.05,-0.465 -0.218,-0.562l-5.236,-3.023c-0.097,-0.056 -0.169,-0.025 -0.207,0.049c-0.024,0.089 -0.011,0.216 0.057,0.346l3.703,7.074c0.119,0.228 0.32,0.291 0.385,0.121c0,0 0.048,-1.212 0.47,-2.328c0.422,-1.116 1.046,-1.677 1.046,-1.677" style="fill:#ff1a21;fill-rule:nonzero;"/><path d="M47.671,18.961c-0.156,-0.175 -0.326,-0.121 -0.326,0.103l0,6.982c0,0.128 0.053,0.255 0.125,0.348c0.078,0.077 0.168,0.111 0.235,0.06l3.703,-2.8c0.119,-0.089 0.079,-0.382 -0.076,-0.557c0,0 -0.93,-0.601 -1.95,-1.753c-1.02,-1.152 -1.711,-2.383 -1.711,-2.383" style="fill:#00983e;fill-rule:nonzero;"/><path d="M40.787,22.879c-0.064,0.17 0.05,0.464 0.218,0.562l5.237,3.023c0.095,0.055 0.168,0.025 0.206,-0.049c0.024,-0.09 0.011,-0.216 -0.057,-0.346l-3.702,-7.074c-0.119,-0.228 -0.322,-0.292 -0.386,-0.121c0,0 -0.048,1.212 -0.47,2.328c-0.422,1.115 -1.046,1.677 -1.046,1.677" style="fill:#1f191a;fill-rule:nonzero;"/><path d="M46.706,35.475c0.155,0.176 0.327,0.122 0.327,-0.102l0,-6.982c0,-0.128 -0.055,-0.256 -0.127,-0.348c-0.077,-0.077 -0.167,-0.111 -0.235,-0.06l-3.702,2.8c-0.119,0.089 -0.079,0.381 0.077,0.557c0,0 0.929,0.601 1.949,1.753c1.02,1.151 1.711,2.382 1.711,2.382" style="fill:#1f191a;fill-rule:nonzero;"/><path d="M43.004,18.312c-0.156,-0.004 -0.196,0.241 -0.078,0.469l3.703,7.075c0.068,0.129 0.158,0.199 0.235,0.212c0.072,-0.01 0.126,-0.075 0.127,-0.203l0,-6.982c0,-0.224 -0.171,-0.476 -0.327,-0.48c0,0 -0.692,0.433 -1.711,0.408c-1.019,-0.026 -1.949,-0.499 -1.949,-0.499" style="fill:#1f191a;fill-rule:nonzero;"/><path d="M42.321,29.988c0.064,0.245 0.266,0.415 0.385,0.325l3.703,-2.799c0.068,-0.051 0.081,-0.163 0.057,-0.28c-0.039,-0.119 -0.111,-0.232 -0.207,-0.288l-5.236,-3.023c-0.169,-0.097 -0.283,0.064 -0.218,0.31c0,0 0.623,1.281 1.045,2.885c0.423,1.603 0.471,2.87 0.471,2.87" style="fill:#1f191a;fill-rule:nonzero;"/><path d="M51.374,36.125c0.155,0.004 0.195,-0.242 0.076,-0.469l-3.702,-7.075c-0.068,-0.129 -0.158,-0.199 -0.235,-0.212c-0.072,0.01 -0.126,0.075 -0.126,0.203l0,6.982c0,0.224 0.171,0.476 0.326,0.48c0,0 0.692,-0.433 1.711,-0.407c1.02,0.025 1.95,0.498 1.95,0.498" style="fill:#1f191a;fill-rule:nonzero;"/><path d="M55.413,27.724l1.605,0.926l0,3.151c-0.317,0.104 -0.709,0.114 -1.174,0.032c-0.465,-0.082 -0.899,-0.24 -1.302,-0.472c-0.586,-0.339 -1.111,-0.813 -1.576,-1.421c-0.466,-0.609 -0.83,-1.289 -1.093,-2.04c-0.264,-0.75 -0.396,-1.502 -0.396,-2.255c0,-0.745 0.138,-1.337 0.412,-1.778c0.274,-0.44 0.653,-0.689 1.137,-0.747c0.484,-0.057 1.03,0.09 1.637,0.44c0.441,0.255 0.883,0.617 1.326,1.088c0.444,0.472 0.816,0.973 1.117,1.505l-1.056,1.1c-0.188,-0.359 -0.41,-0.686 -0.665,-0.981c-0.256,-0.294 -0.499,-0.508 -0.73,-0.641c-0.237,-0.137 -0.452,-0.181 -0.645,-0.131c-0.194,0.049 -0.344,0.183 -0.452,0.401c-0.107,0.217 -0.161,0.501 -0.161,0.852c0,0.359 0.055,0.712 0.165,1.058c0.111,0.347 0.262,0.657 0.456,0.93c0.193,0.273 0.411,0.479 0.653,0.619c0.204,0.118 0.451,0.175 0.742,0.17l0,-1.806l0,0Z" style="fill:#1f191a;fill-rule:nonzero;"/></g></g></g><path d="M46.477,41.932l-5.114,-2.952l0,32.816l5.114,-3.047l0,-26.817Z" style="fill:#e7e7e7;"/><path d="M51.696,44.763l-2.857,-1.65l0,25.344l2.857,-2.082l0,-21.612Z" style="fill:#e7e7e7;"/><path d="M34.761,71.25l0,-67.696l-1.875,0.261l0,66.178l1.875,1.257Z" style="fill:#ccc;"/><path d="M37.538,0.371c0.389,0.01 0.771,0.112 1.113,0.298c10.106,5.723 20.164,11.53 30.174,17.421c0.689,0.421 1.13,1.188 1.151,1.994c0.096,11.613 0.096,23.228 0,34.841c-0.021,0.807 -0.464,1.573 -1.151,1.994c-10.01,5.89 -20.068,11.697 -30.174,17.42c-0.707,0.385 -1.591,0.387 -2.302,0c-10.106,-5.723 -20.164,-11.53 -30.174,-17.42c-0.689,-0.422 -1.13,-1.188 -1.151,-1.994c-0.096,-11.613 -0.096,-23.228 0,-34.841c0.02,-0.805 0.461,-1.572 1.151,-1.994c10.01,-5.891 20.068,-11.698 30.174,-17.421c0.371,-0.202 0.697,-0.302 1.189,-0.298Zm-28.838,19.278c-0.658,0.38 -1.063,1.081 -1.063,1.841c0,5.357 0,26.671 0,32.029c0,0.759 0.405,1.461 1.063,1.84c4.639,2.679 23.098,13.336 27.737,16.015c0.658,0.379 1.468,0.379 2.126,0c4.639,-2.679 23.098,-13.336 27.737,-16.015c0.658,-0.379 1.063,-1.081 1.063,-1.84c0,-5.358 0,-26.672 0,-32.029c0,-0.76 -0.405,-1.461 -1.063,-1.841c-4.639,-2.679 -23.098,-13.335 -27.737,-16.014c-0.658,-0.38 -1.468,-0.38 -2.126,0c-9.246,5.338 -18.492,10.676 -27.737,16.014Z" style="fill:#224b62;fill-rule:nonzero;"/><g><path d="M33.884,7.561c0.281,0.162 0.509,0.598 0.509,0.973c0,0.375 -0.228,0.547 -0.509,0.385c-0.281,-0.162 -0.509,-0.598 -0.509,-0.973c0,-0.375 0.228,-0.547 0.509,-0.385Z" style="fill:#404040;"/><path d="M33.884,7.857c0.159,0.092 0.287,0.337 0.287,0.549c0,0.211 -0.128,0.308 -0.287,0.217c-0.158,-0.092 -0.287,-0.338 -0.287,-0.549c0,-0.211 0.129,-0.309 0.287,-0.217Z" style="fill:#fff;"/></g><g><path d="M33.884,19.202c0.281,0.162 0.509,0.598 0.509,0.973c0,0.374 -0.228,0.547 -0.509,0.384c-0.281,-0.162 -0.509,-0.598 -0.509,-0.972c0,-0.375 0.228,-0.548 0.509,-0.385Z" style="fill:#404040;"/><path d="M33.884,19.498c0.159,0.091 0.287,0.337 0.287,0.548c0,0.212 -0.128,0.309 -0.287,0.217c-0.158,-0.091 -0.287,-0.337 -0.287,-0.548c0,-0.212 0.129,-0.309 0.287,-0.217Z" style="fill:#fff;"/></g><g><path d="M33.884,30.842c0.281,0.163 0.509,0.598 0.509,0.973c0,0.375 -0.228,0.547 -0.509,0.385c-0.281,-0.162 -0.509,-0.598 -0.509,-0.973c0,-0.374 0.228,-0.547 0.509,-0.385Z" style="fill:#404040;"/><path d="M33.884,31.138c0.159,0.092 0.287,0.338 0.287,0.549c0,0.211 -0.128,0.309 -0.287,0.217c-0.158,-0.091 -0.287,-0.337 -0.287,-0.549c0,-0.211 0.129,-0.308 0.287,-0.217Z" style="fill:#fff;"/></g><g><path d="M33.884,42.483c0.281,0.162 0.509,0.598 0.509,0.973c0,0.374 -0.228,0.547 -0.509,0.385c-0.281,-0.163 -0.509,-0.598 -0.509,-0.973c0,-0.375 0.228,-0.547 0.509,-0.385Z" style="fill:#404040;"/><path d="M33.884,42.779c0.159,0.091 0.287,0.337 0.287,0.549c0,0.211 -0.128,0.308 -0.287,0.217c-0.158,-0.092 -0.287,-0.338 -0.287,-0.549c0,-0.211 0.129,-0.309 0.287,-0.217Z" style="fill:#fff;"/></g><g><path d="M33.884,54.124c0.281,0.162 0.509,0.598 0.509,0.972c0,0.375 -0.228,0.548 -0.509,0.385c-0.281,-0.162 -0.509,-0.598 -0.509,-0.973c0,-0.374 0.228,-0.547 0.509,-0.384Z" style="fill:#404040;"/><path d="M33.884,54.42c0.159,0.091 0.287,0.337 0.287,0.548c0,0.212 -0.128,0.309 -0.287,0.217c-0.158,-0.091 -0.287,-0.337 -0.287,-0.548c0,-0.212 0.129,-0.309 0.287,-0.217Z" style="fill:#fff;"/></g><g><path d="M33.884,65.764c0.281,0.162 0.509,0.598 0.509,0.973c0,0.375 -0.228,0.547 -0.509,0.385c-0.281,-0.162 -0.509,-0.598 -0.509,-0.973c0,-0.375 0.228,-0.547 0.509,-0.385Z" style="fill:#404040;"/><path d="M33.884,66.06c0.159,0.092 0.287,0.338 0.287,0.549c0,0.211 -0.128,0.309 -0.287,0.217c-0.158,-0.091 -0.287,-0.337 -0.287,-0.549c0,-0.211 0.129,-0.308 0.287,-0.217Z" style="fill:#fff;"/></g><defs><linearGradient id="_Linear1" x1="0" y1="0" x2="1" y2="0" gradientUnits="userSpaceOnUse" gradientTransform="matrix(3.85761e-15,62.9996,-62.9996,3.85761e-15,21.4341,11.625)"><stop offset="0" style="stop-color:#d4d4d4;stop-opacity:1"/><stop offset="1" style="stop-color:#fff;stop-opacity:1"/></linearGradient><linearGradient id="_Linear2" x1="0" y1="0" x2="1" y2="0" gradientUnits="userSpaceOnUse" gradientTransform="matrix(3.85761e-15,62.9996,-62.9996,3.85761e-15,21.4341,11.625)"><stop offset="0" style="stop-color:#d4d4d4;stop-opacity:1"/><stop offset="1" style="stop-color:#fff;stop-opacity:1"/></linearGradient></defs></svg>