<?xml version="1.0" encoding="UTF-8" standalone="no"?><!DOCTYPE svg PUBLIC "-//W3C//DTD SVG 1.1//EN" "http://www.w3.org/Graphics/SVG/1.1/DTD/svg11.dtd"><svg width="100%" height="100%" viewBox="0 0 75 75" version="1.1" xmlns="http://www.w3.org/2000/svg" xmlns:xlink="http://www.w3.org/1999/xlink" xml:space="preserve" xmlns:serif="http://www.serif.com/" style="fill-rule:evenodd;clip-rule:evenodd;stroke-linejoin:round;stroke-miterlimit:1.41421;"><rect id="fettuccia" x="0" y="0" width="75" height="75" style="fill:none;"/><path d="M36.314,0.684c0.734,-0.423 1.638,-0.423 2.372,0c5.084,2.936 25.02,14.446 30.104,17.382c0.734,0.423 1.186,1.206 1.186,2.053c0,5.871 0,28.891 0,34.762c0,0.847 -0.452,1.63 -1.186,2.053c-5.084,2.936 -25.02,14.446 -30.104,17.382c-0.734,0.423 -1.638,0.423 -2.372,0c-5.084,-2.936 -25.02,-14.446 -30.104,-17.382c-0.734,-0.423 -1.186,-1.206 -1.186,-2.053c0,-5.871 0,-28.891 0,-34.762c0,-0.847 0.452,-1.63 1.186,-2.053c5.084,-2.936 25.02,-14.446 30.104,-17.382Z" style="fill:url(#_Linear1);"/><g><path d="M67.415,36.988l0,16.709c0,0.759 -0.405,1.46 -1.063,1.84l-17.73,10.236l-10.964,-6.45l-2.25,-1.314l0,-39.452l32.007,18.431Z" style="fill:#fff;"/><path d="M36.908,58.891l0,-39.47l-1.5,-0.864l0,39.452l1.5,0.882Z" style="fill:#ccc;"/><g><path d="M63.172,47.717c0.064,-0.167 -0.049,-0.457 -0.215,-0.553l-5.16,-2.979c-0.095,-0.055 -0.166,-0.025 -0.204,0.048c-0.023,0.088 -0.01,0.213 0.057,0.341l3.649,6.972c0.117,0.224 0.316,0.287 0.379,0.119c0,0 0.047,-1.195 0.463,-2.294c0.417,-1.1 1.031,-1.654 1.031,-1.654" style="fill:#ff1a21;fill-rule:nonzero;"/><path d="M57.339,35.304c-0.153,-0.173 -0.321,-0.12 -0.321,0.101l0,6.88c0,0.127 0.052,0.252 0.123,0.344c0.077,0.076 0.165,0.109 0.232,0.059l3.649,-2.759c0.117,-0.089 0.078,-0.377 -0.075,-0.55c0,0 -0.916,-0.592 -1.922,-1.727c-1.005,-1.135 -1.686,-2.348 -1.686,-2.348" style="fill:#00983e;fill-rule:nonzero;"/><path d="M50.555,39.165c-0.064,0.167 0.049,0.457 0.215,0.553l5.16,2.98c0.095,0.054 0.166,0.024 0.204,-0.049c0.023,-0.088 0.011,-0.213 -0.056,-0.341l-3.649,-6.972c-0.118,-0.224 -0.317,-0.287 -0.38,-0.118c0,0 -0.047,1.194 -0.464,2.294c-0.416,1.099 -1.03,1.653 -1.03,1.653" style="fill:#1f191a;fill-rule:nonzero;"/><path d="M56.388,51.578c0.153,0.174 0.322,0.121 0.322,-0.101l0,-6.88c0,-0.126 -0.054,-0.252 -0.124,-0.343c-0.077,-0.076 -0.165,-0.11 -0.232,-0.06l-3.649,2.76c-0.117,0.088 -0.078,0.376 0.076,0.549c0,0 0.916,0.592 1.921,1.727c1.005,1.135 1.686,2.348 1.686,2.348" style="fill:#1f191a;fill-rule:nonzero;"/><path d="M52.739,34.664c-0.153,-0.005 -0.193,0.238 -0.076,0.462l3.65,6.972c0.066,0.128 0.155,0.196 0.231,0.209c0.071,-0.01 0.124,-0.074 0.124,-0.2l0,-6.88c0,-0.222 -0.168,-0.469 -0.321,-0.473c0,0 -0.682,0.426 -1.686,0.401c-1.005,-0.025 -1.921,-0.491 -1.921,-0.491" style="fill:#1f191a;fill-rule:nonzero;"/><path d="M52.066,46.171c0.064,0.241 0.263,0.409 0.38,0.32l3.649,-2.758c0.067,-0.051 0.08,-0.161 0.056,-0.277c-0.038,-0.117 -0.109,-0.228 -0.203,-0.283l-5.161,-2.979c-0.166,-0.096 -0.279,0.063 -0.215,0.305c0,0 0.615,1.263 1.031,2.843c0.416,1.58 0.463,2.829 0.463,2.829" style="fill:#1f191a;fill-rule:nonzero;"/><path d="M60.988,52.219c0.153,0.004 0.193,-0.239 0.076,-0.463l-3.649,-6.972c-0.067,-0.128 -0.155,-0.196 -0.232,-0.209c-0.071,0.01 -0.124,0.074 -0.124,0.201l0,6.88c0,0.221 0.169,0.469 0.322,0.473c0,0 0.681,-0.427 1.686,-0.401c1.005,0.025 1.921,0.491 1.921,0.491" style="fill:#1f191a;fill-rule:nonzero;"/><path d="M64.969,43.939l1.581,0.913l0,3.105c-0.312,0.102 -0.698,0.112 -1.156,0.032c-0.458,-0.081 -0.886,-0.236 -1.283,-0.466c-0.578,-0.333 -1.096,-0.8 -1.554,-1.4c-0.459,-0.6 -0.818,-1.27 -1.077,-2.01c-0.26,-0.74 -0.39,-1.48 -0.39,-2.222c0,-0.735 0.136,-1.319 0.406,-1.752c0.27,-0.434 0.644,-0.68 1.12,-0.737c0.477,-0.056 1.015,0.089 1.614,0.434c0.434,0.251 0.87,0.608 1.307,1.072c0.437,0.465 0.804,0.959 1.101,1.484l-1.041,1.084c-0.186,-0.355 -0.404,-0.677 -0.656,-0.968c-0.252,-0.289 -0.492,-0.5 -0.719,-0.631c-0.233,-0.135 -0.445,-0.178 -0.636,-0.129c-0.191,0.048 -0.339,0.18 -0.445,0.394c-0.106,0.215 -0.159,0.495 -0.159,0.841c0,0.354 0.054,0.701 0.163,1.042c0.109,0.342 0.258,0.648 0.449,0.916c0.191,0.27 0.405,0.473 0.644,0.61c0.201,0.117 0.445,0.173 0.731,0.168l0,-1.78l0,0Z" style="fill:#1f191a;fill-rule:nonzero;"/></g><path d="M62.704,58.618l-19.651,-11.345l0,4.313l16.259,9.387l3.392,-2.355Z" style="fill:#e6e6e6;"/><path d="M56.874,62.257l-12.527,-7.232l0,1.79l11.027,6.366l1.5,-0.924Z" style="fill:#e6e6e6;"/></g><path d="M37.538,0.371c0.389,0.01 0.771,0.112 1.113,0.298c10.106,5.723 20.164,11.53 30.174,17.421c0.689,0.421 1.13,1.188 1.151,1.994c0.096,11.613 0.096,23.228 0,34.841c-0.021,0.807 -0.464,1.573 -1.151,1.994c-10.01,5.89 -20.068,11.697 -30.174,17.42c-0.707,0.385 -1.591,0.387 -2.302,0c-10.106,-5.723 -20.164,-11.53 -30.174,-17.42c-0.689,-0.422 -1.13,-1.188 -1.151,-1.994c-0.096,-11.613 -0.096,-23.228 0,-34.841c0.02,-0.805 0.461,-1.572 1.151,-1.994c10.01,-5.891 20.068,-11.698 30.174,-17.421c0.371,-0.202 0.697,-0.302 1.189,-0.298Zm-28.838,19.278c-0.658,0.38 -1.063,1.081 -1.063,1.841c0,5.357 0,26.671 0,32.029c0,0.759 0.405,1.461 1.063,1.84c4.639,2.679 23.098,13.336 27.737,16.015c0.658,0.379 1.468,0.379 2.126,0c4.639,-2.679 23.098,-13.336 27.737,-16.015c0.658,-0.379 1.063,-1.081 1.063,-1.84c0,-5.358 0,-26.672 0,-32.029c0,-0.76 -0.405,-1.461 -1.063,-1.841c-4.639,-2.679 -23.098,-13.335 -27.737,-16.014c-0.658,-0.38 -1.468,-0.38 -2.126,0c-9.246,5.338 -18.492,10.676 -27.737,16.014Z" style="fill:#224b62;fill-rule:nonzero;"/><defs><linearGradient id="_Linear1" x1="0" y1="0" x2="1" y2="0" gradientUnits="userSpaceOnUse" gradientTransform="matrix(3.85761e-15,62.9996,-62.9996,3.85761e-15,21.4341,11.625)"><stop offset="0" style="stop-color:#d4d4d4;stop-opacity:1"/><stop offset="1" style="stop-color:#fff;stop-opacity:1"/></linearGradient></defs></svg>