<?xml version="1.0" encoding="utf-8"?>
<!-- Generator: Adobe Illustrator 21.0.0, SVG Export Plug-In . SVG Version: 6.00 Build 0)  -->
<svg version="1.1" id="Livello_1" xmlns="http://www.w3.org/2000/svg" xmlns:xlink="http://www.w3.org/1999/xlink" x="0px" y="0px"
	 viewBox="0 0 85 85" style="enable-background:new 0 0 85 85;" xml:space="preserve">
<style type="text/css">
	.st0{fill:#FFFFFF;stroke:#000000;stroke-miterlimit:10;}
	.st1{fill:none;stroke:#000000;stroke-miterlimit:10;}
	.st2{font-family:'MyriadPro-Regular';}
	.st3{font-size:12px;}
	.st4{fill:#E73236;}
	.st5{fill:#009741;}
	.st6{fill:#211B1C;}
</style>
<path class="st0" d="M42.5,65.5L19.6,19.6c15.3,2,30.6,2,45.9,0L42.5,65.5z"/>
<path class="st1" d="M0,16.1c29.1,6.8,57.5,6.6,85,0"/>
<text transform="matrix(1 0 0 1 39.4419 35.5747)" class="st2 st3">1</text>
<g>
	<g>
		<path class="st4" d="M48,46c0-0.1,0-0.2-0.2-0.2h-3.9c-0.1,0-0.1,0-0.2,0.1c0,0.1,0,0.1,0,0.2l2.7,2.7c0.1,0.1,0.2,0.1,0.3-0.1
			c0,0,0-0.7,0.3-1.4C47.5,46.5,48,46,48,46"/>
		<path class="st5" d="M43.6,40.9c-0.1,0-0.2,0-0.2,0.2v3.9c0,0.1,0,0.1,0.1,0.2c0.1,0,0.1,0,0.2,0l2.7-2.7c0.1-0.1,0.1-0.2-0.1-0.3
			c0,0-0.7,0-1.4-0.3C44.1,41.4,43.6,40.9,43.6,40.9"/>
		<path class="st6" d="M38.5,45.3c0,0.1,0,0.2,0.2,0.2h3.9c0.1,0,0.1,0,0.2-0.1c0-0.1,0-0.1,0-0.2l-2.7-2.7
			c-0.1-0.1-0.2-0.1-0.3,0.1c0,0,0,0.7-0.3,1.4C39,44.8,38.5,45.3,38.5,45.3"/>
		<path class="st6" d="M42.9,50.4c0.1,0,0.2,0,0.2-0.2v-3.9c0-0.1,0-0.1-0.1-0.2c-0.1,0-0.1,0-0.2,0L40.1,49
			c-0.1,0.1-0.1,0.2,0.1,0.3c0,0,0.7,0,1.4,0.3C42.4,49.9,42.9,50.4,42.9,50.4"/>
		<path class="st6" d="M40.1,42c-0.1,0-0.1,0.2-0.1,0.3l2.7,2.7c0,0,0.1,0.1,0.2,0c0.1,0,0.1-0.1,0.1-0.2v-3.9
			c0-0.1-0.1-0.2-0.2-0.2c0,0-0.5,0.5-1.3,0.8C40.8,42,40.1,42,40.1,42"/>
		<path class="st6" d="M39.6,48.7c0,0.1,0.2,0.1,0.3,0.1l2.7-2.7c0.1-0.1,0.1-0.1,0-0.2c0-0.1-0.1-0.1-0.2-0.1h-3.9
			c-0.1,0-0.2,0.1-0.2,0.2c0,0,0.5,0.5,0.8,1.3C39.6,48,39.6,48.7,39.6,48.7"/>
		<path class="st6" d="M46.3,49.2c0.1,0,0.1-0.2,0.1-0.3l-2.7-2.7c-0.1,0-0.1-0.1-0.2,0c-0.1,0-0.1,0.1-0.1,0.2v3.9
			c0,0.1,0.1,0.2,0.2,0.2c0,0,0.5-0.5,1.3-0.8C45.6,49.3,46.3,49.2,46.3,49.2"/>
		<path class="st6" d="M49.3,43.3h1.2V45c-0.2,0.2-0.5,0.3-0.9,0.4c-0.3,0.1-0.7,0.2-1,0.2c-0.4,0-0.8-0.1-1.2-0.3
			c-0.3-0.2-0.6-0.4-0.8-0.8c-0.2-0.3-0.3-0.7-0.3-1.1c0-0.4,0.1-0.8,0.3-1.1c0.2-0.3,0.5-0.6,0.8-0.8c0.4-0.2,0.8-0.3,1.2-0.3
			c0.3,0,0.7,0.1,1,0.2c0.3,0.1,0.6,0.3,0.8,0.5l-0.8,0.9c-0.1-0.1-0.3-0.2-0.5-0.3c-0.2-0.1-0.4-0.1-0.5-0.1c-0.2,0-0.3,0-0.5,0.1
			c-0.1,0.1-0.3,0.2-0.3,0.4c-0.1,0.2-0.1,0.3-0.1,0.5c0,0.2,0,0.4,0.1,0.5c0.1,0.2,0.2,0.3,0.3,0.4c0.1,0.1,0.3,0.1,0.5,0.1
			c0.2,0,0.3,0,0.5-0.1V43.3L49.3,43.3z"/>
	</g>
</g>
</svg>
